<mxfile host="app.diagrams.net" modified="2021-11-26T02:05:35.729Z" agent="5.0 (Macintosh; Intel Mac OS X 10_15_7) AppleWebKit/537.36 (KHTML, like Gecko) Chrome/95.0.4638.69 Safari/537.36" etag="MD0kvZtMsACZ7sPZLgpW" version="15.8.6" type="github">
  <diagram id="zAV_eZDouLZWu_ihv0Mf" name="Page-1">
    <mxGraphModel dx="1426" dy="685" grid="1" gridSize="10" guides="1" tooltips="1" connect="1" arrows="1" fold="1" page="1" pageScale="1" pageWidth="827" pageHeight="1169" math="0" shadow="0">
      <root>
        <mxCell id="0" />
        <mxCell id="1" parent="0" />
        <mxCell id="PgV6RyHVGMir6iEWmVkU-1" value="&lt;font style=&quot;font-size: 18px&quot;&gt;Criteria: Both on premise and cloud Enkore Smart server has the ability to reach internet.&lt;/font&gt;" style="text;html=1;align=center;verticalAlign=middle;resizable=0;points=[];autosize=1;strokeColor=none;fillColor=none;" parent="1" vertex="1">
          <mxGeometry x="80" y="40" width="720" height="20" as="geometry" />
        </mxCell>
        <mxCell id="PgV6RyHVGMir6iEWmVkU-3" value="" style="verticalLabelPosition=bottom;html=1;verticalAlign=top;align=center;strokeColor=none;fillColor=#00BEF2;shape=mxgraph.azure.mobile;pointerEvents=1;fontSize=18;" parent="1" vertex="1">
          <mxGeometry x="110" y="460" width="35" height="50" as="geometry" />
        </mxCell>
        <mxCell id="PgV6RyHVGMir6iEWmVkU-5" value="Site 1&lt;br&gt;" style="sketch=0;outlineConnect=0;fontColor=#232F3E;gradientColor=none;strokeColor=#232F3E;fillColor=#ffffff;dashed=0;verticalLabelPosition=bottom;verticalAlign=top;align=center;html=1;fontSize=12;fontStyle=0;aspect=fixed;shape=mxgraph.aws4.resourceIcon;resIcon=mxgraph.aws4.office_building;" parent="1" vertex="1">
          <mxGeometry x="378" y="300" width="60" height="60" as="geometry" />
        </mxCell>
        <mxCell id="PgV6RyHVGMir6iEWmVkU-6" value="Site 2" style="sketch=0;outlineConnect=0;fontColor=#232F3E;gradientColor=none;strokeColor=#232F3E;fillColor=#ffffff;dashed=0;verticalLabelPosition=bottom;verticalAlign=top;align=center;html=1;fontSize=12;fontStyle=0;aspect=fixed;shape=mxgraph.aws4.resourceIcon;resIcon=mxgraph.aws4.office_building;" parent="1" vertex="1">
          <mxGeometry x="378" y="420" width="60" height="60" as="geometry" />
        </mxCell>
        <mxCell id="PgV6RyHVGMir6iEWmVkU-9" value="Cloud" style="ellipse;shape=cloud;whiteSpace=wrap;html=1;fontSize=18;" parent="1" vertex="1">
          <mxGeometry x="348" y="570" width="120" height="80" as="geometry" />
        </mxCell>
        <mxCell id="PgV6RyHVGMir6iEWmVkU-10" value="SMTP" style="ellipse;shape=cloud;whiteSpace=wrap;html=1;fontSize=18;" parent="1" vertex="1">
          <mxGeometry x="624" y="340" width="120" height="80" as="geometry" />
        </mxCell>
        <mxCell id="PgV6RyHVGMir6iEWmVkU-11" value="AWS&lt;br&gt;Cognito" style="ellipse;shape=cloud;whiteSpace=wrap;html=1;fontSize=18;" parent="1" vertex="1">
          <mxGeometry x="624" y="490" width="120" height="80" as="geometry" />
        </mxCell>
        <mxCell id="PgV6RyHVGMir6iEWmVkU-12" value="" style="endArrow=none;dashed=1;html=1;rounded=0;fontSize=18;strokeWidth=4;" parent="1" edge="1">
          <mxGeometry width="50" height="50" relative="1" as="geometry">
            <mxPoint x="254" y="510" as="sourcePoint" />
            <mxPoint x="254" y="260" as="targetPoint" />
          </mxGeometry>
        </mxCell>
        <mxCell id="PgV6RyHVGMir6iEWmVkU-13" value="" style="endArrow=none;html=1;rounded=0;fontSize=18;strokeWidth=4;" parent="1" edge="1">
          <mxGeometry width="50" height="50" relative="1" as="geometry">
            <mxPoint x="574" y="680" as="sourcePoint" />
            <mxPoint x="574" y="265" as="targetPoint" />
          </mxGeometry>
        </mxCell>
        <mxCell id="PgV6RyHVGMir6iEWmVkU-22" value="" style="endArrow=none;html=1;rounded=0;fontSize=18;strokeWidth=4;" parent="1" edge="1">
          <mxGeometry width="50" height="50" relative="1" as="geometry">
            <mxPoint x="226" y="2050" as="sourcePoint" />
            <mxPoint x="226" y="1640" as="targetPoint" />
            <Array as="points">
              <mxPoint x="226" y="1742" />
            </Array>
          </mxGeometry>
        </mxCell>
        <mxCell id="PgV6RyHVGMir6iEWmVkU-23" value="SSL/TLS1.3" style="text;html=1;align=center;verticalAlign=middle;resizable=0;points=[];autosize=1;strokeColor=none;fillColor=none;fontSize=18;" parent="1" vertex="1">
          <mxGeometry x="180" y="2075" width="110" height="30" as="geometry" />
        </mxCell>
        <mxCell id="PgV6RyHVGMir6iEWmVkU-24" value="Insecure" style="text;html=1;align=center;verticalAlign=middle;resizable=0;points=[];autosize=1;strokeColor=none;fillColor=none;fontSize=18;" parent="1" vertex="1">
          <mxGeometry x="215" y="210" width="80" height="30" as="geometry" />
        </mxCell>
        <mxCell id="PgV6RyHVGMir6iEWmVkU-25" value="Secure" style="text;html=1;align=center;verticalAlign=middle;resizable=0;points=[];autosize=1;strokeColor=none;fillColor=none;fontSize=18;" parent="1" vertex="1">
          <mxGeometry x="534" y="210" width="70" height="30" as="geometry" />
        </mxCell>
        <mxCell id="PgV6RyHVGMir6iEWmVkU-26" value="Secure" style="text;html=1;align=center;verticalAlign=middle;resizable=0;points=[];autosize=1;strokeColor=none;fillColor=none;fontSize=18;" parent="1" vertex="1">
          <mxGeometry x="540" y="695" width="70" height="30" as="geometry" />
        </mxCell>
        <mxCell id="PgV6RyHVGMir6iEWmVkU-28" value="Client" style="rounded=1;whiteSpace=wrap;html=1;fontSize=18;" parent="1" vertex="1">
          <mxGeometry x="70" y="120" width="120" height="60" as="geometry" />
        </mxCell>
        <mxCell id="PgV6RyHVGMir6iEWmVkU-29" value="Enkore Server" style="rounded=1;whiteSpace=wrap;html=1;fontSize=18;" parent="1" vertex="1">
          <mxGeometry x="348" y="120" width="120" height="60" as="geometry" />
        </mxCell>
        <mxCell id="PgV6RyHVGMir6iEWmVkU-30" value="Third party services" style="rounded=1;whiteSpace=wrap;html=1;fontSize=18;" parent="1" vertex="1">
          <mxGeometry x="624" y="120" width="120" height="60" as="geometry" />
        </mxCell>
        <mxCell id="PgV6RyHVGMir6iEWmVkU-31" value="Client" style="rounded=1;whiteSpace=wrap;html=1;fontSize=18;" parent="1" vertex="1">
          <mxGeometry x="50" y="1510" width="120" height="60" as="geometry" />
        </mxCell>
        <mxCell id="PgV6RyHVGMir6iEWmVkU-32" value="Enkore Server" style="rounded=1;whiteSpace=wrap;html=1;fontSize=18;" parent="1" vertex="1">
          <mxGeometry x="625" y="1510" width="120" height="60" as="geometry" />
        </mxCell>
        <mxCell id="PgV6RyHVGMir6iEWmVkU-33" value="Third party services" style="rounded=1;whiteSpace=wrap;html=1;fontSize=18;" parent="1" vertex="1">
          <mxGeometry x="890" y="1510" width="120" height="60" as="geometry" />
        </mxCell>
        <mxCell id="PgV6RyHVGMir6iEWmVkU-34" value="Proxy" style="rounded=1;whiteSpace=wrap;html=1;fontSize=18;" parent="1" vertex="1">
          <mxGeometry x="300" y="1510" width="120" height="60" as="geometry" />
        </mxCell>
        <mxCell id="PgV6RyHVGMir6iEWmVkU-35" value="" style="endArrow=none;html=1;rounded=0;fontSize=18;strokeWidth=4;" parent="1" edge="1">
          <mxGeometry width="50" height="50" relative="1" as="geometry">
            <mxPoint x="835" y="2060" as="sourcePoint" />
            <mxPoint x="835" y="1645" as="targetPoint" />
          </mxGeometry>
        </mxCell>
        <mxCell id="PgV6RyHVGMir6iEWmVkU-36" value="Secure" style="text;html=1;align=center;verticalAlign=middle;resizable=0;points=[];autosize=1;strokeColor=none;fillColor=none;fontSize=18;" parent="1" vertex="1">
          <mxGeometry x="795" y="1590" width="70" height="30" as="geometry" />
        </mxCell>
        <mxCell id="PgV6RyHVGMir6iEWmVkU-37" value="Secure" style="text;html=1;align=center;verticalAlign=middle;resizable=0;points=[];autosize=1;strokeColor=none;fillColor=none;fontSize=18;" parent="1" vertex="1">
          <mxGeometry x="801" y="2075" width="70" height="30" as="geometry" />
        </mxCell>
        <mxCell id="PgV6RyHVGMir6iEWmVkU-38" value="" style="endArrow=none;html=1;rounded=0;fontSize=18;strokeWidth=4;" parent="1" edge="1">
          <mxGeometry width="50" height="50" relative="1" as="geometry">
            <mxPoint x="256" y="682" as="sourcePoint" />
            <mxPoint x="256" y="530" as="targetPoint" />
            <Array as="points">
              <mxPoint x="256" y="632" />
            </Array>
          </mxGeometry>
        </mxCell>
        <mxCell id="PgV6RyHVGMir6iEWmVkU-39" value="SSL/TLS1.3" style="text;html=1;align=center;verticalAlign=middle;resizable=0;points=[];autosize=1;strokeColor=none;fillColor=none;fontSize=18;" parent="1" vertex="1">
          <mxGeometry x="200" y="695" width="110" height="30" as="geometry" />
        </mxCell>
        <mxCell id="PgV6RyHVGMir6iEWmVkU-40" value="Site 1&lt;br&gt;" style="sketch=0;outlineConnect=0;fontColor=#232F3E;gradientColor=none;strokeColor=#232F3E;fillColor=#ffffff;dashed=0;verticalLabelPosition=bottom;verticalAlign=top;align=center;html=1;fontSize=12;fontStyle=0;aspect=fixed;shape=mxgraph.aws4.resourceIcon;resIcon=mxgraph.aws4.office_building;" parent="1" vertex="1">
          <mxGeometry x="663" y="1680" width="60" height="60" as="geometry" />
        </mxCell>
        <mxCell id="PgV6RyHVGMir6iEWmVkU-41" value="Site 2" style="sketch=0;outlineConnect=0;fontColor=#232F3E;gradientColor=none;strokeColor=#232F3E;fillColor=#ffffff;dashed=0;verticalLabelPosition=bottom;verticalAlign=top;align=center;html=1;fontSize=12;fontStyle=0;aspect=fixed;shape=mxgraph.aws4.resourceIcon;resIcon=mxgraph.aws4.office_building;" parent="1" vertex="1">
          <mxGeometry x="663" y="1800" width="60" height="60" as="geometry" />
        </mxCell>
        <mxCell id="PgV6RyHVGMir6iEWmVkU-42" value="Cloud" style="ellipse;shape=cloud;whiteSpace=wrap;html=1;fontSize=18;" parent="1" vertex="1">
          <mxGeometry x="633" y="1950" width="120" height="80" as="geometry" />
        </mxCell>
        <mxCell id="PgV6RyHVGMir6iEWmVkU-43" value="SMTP" style="ellipse;shape=cloud;whiteSpace=wrap;html=1;fontSize=18;" parent="1" vertex="1">
          <mxGeometry x="900" y="1720" width="120" height="80" as="geometry" />
        </mxCell>
        <mxCell id="PgV6RyHVGMir6iEWmVkU-44" value="AWS&lt;br&gt;Cognito" style="ellipse;shape=cloud;whiteSpace=wrap;html=1;fontSize=18;" parent="1" vertex="1">
          <mxGeometry x="900" y="1870" width="120" height="80" as="geometry" />
        </mxCell>
        <mxCell id="PgV6RyHVGMir6iEWmVkU-45" value="Secure" style="text;html=1;align=center;verticalAlign=middle;resizable=0;points=[];autosize=1;strokeColor=none;fillColor=none;fontSize=18;" parent="1" vertex="1">
          <mxGeometry x="190" y="1590" width="70" height="30" as="geometry" />
        </mxCell>
        <mxCell id="PgV6RyHVGMir6iEWmVkU-46" value="" style="verticalLabelPosition=bottom;html=1;verticalAlign=top;align=center;strokeColor=none;fillColor=#00BEF2;shape=mxgraph.azure.mobile;pointerEvents=1;fontSize=18;" parent="1" vertex="1">
          <mxGeometry x="92.5" y="1810" width="35" height="50" as="geometry" />
        </mxCell>
        <mxCell id="PgV6RyHVGMir6iEWmVkU-47" value="Proxy&lt;br&gt;&amp;nbsp;server" style="ellipse;shape=cloud;whiteSpace=wrap;html=1;fontSize=18;" parent="1" vertex="1">
          <mxGeometry x="290" y="1770" width="140" height="120" as="geometry" />
        </mxCell>
        <mxCell id="PgV6RyHVGMir6iEWmVkU-48" value="&lt;h1&gt;Pros and cons&lt;/h1&gt;&lt;p&gt;Pros&lt;/p&gt;&lt;p&gt;1. 架構更動幅度小，開發快速。&lt;/p&gt;&lt;p&gt;2. 使用 AWS Cognito 做 Client 的 Authentication/Authorization&lt;/p&gt;&lt;p&gt;Cons&lt;/p&gt;&lt;p&gt;1. 在 On premise 的版本，App 與 Server 之間的連線是(未加密)的。&lt;/p&gt;&lt;p&gt;2. App 必須在 on premise 的區域網路中，才能與 Server 溝通。&lt;/p&gt;" style="text;html=1;strokeColor=none;fillColor=none;spacing=5;spacingTop=-20;whiteSpace=wrap;overflow=hidden;rounded=0;fontSize=18;" parent="1" vertex="1">
          <mxGeometry x="827" y="120" width="563" height="440" as="geometry" />
        </mxCell>
        <mxCell id="PgV6RyHVGMir6iEWmVkU-49" value="&lt;h1&gt;Pros and cons&lt;/h1&gt;&lt;p&gt;Pros&lt;/p&gt;&lt;p&gt;1. 所有連線全程加密。&lt;/p&gt;&lt;p&gt;2. App 不需要在區域網路下，也能跟 Server 請求資料。&lt;/p&gt;&lt;p&gt;3. 架構彈性大，未來加值應用導入便利。&lt;/p&gt;&lt;p&gt;Cons&lt;/p&gt;&lt;p&gt;1. 在 On premise 的版本，當 Server 與外界網路中斷時，App 無法使用。&lt;/p&gt;&lt;p&gt;2. Proxy server 開發/維護成本高。&lt;/p&gt;&lt;p&gt;3. Enkore Server 架構需大改 ?&lt;/p&gt;" style="text;html=1;strokeColor=none;fillColor=none;spacing=5;spacingTop=-20;whiteSpace=wrap;overflow=hidden;rounded=0;fontSize=18;" parent="1" vertex="1">
          <mxGeometry x="1100" y="1510" width="620" height="440" as="geometry" />
        </mxCell>
        <mxCell id="PgV6RyHVGMir6iEWmVkU-50" value="" style="endArrow=none;html=1;rounded=0;fontSize=18;strokeWidth=4;" parent="1" edge="1">
          <mxGeometry width="50" height="50" relative="1" as="geometry">
            <mxPoint x="494" y="1710" as="sourcePoint" />
            <mxPoint x="494" y="1640" as="targetPoint" />
            <Array as="points">
              <mxPoint x="494" y="1680" />
            </Array>
          </mxGeometry>
        </mxCell>
        <mxCell id="PgV6RyHVGMir6iEWmVkU-51" value="" style="endArrow=none;html=1;rounded=0;fontSize=18;strokeWidth=4;" parent="1" edge="1">
          <mxGeometry width="50" height="50" relative="1" as="geometry">
            <mxPoint x="494" y="1795" as="sourcePoint" />
            <mxPoint x="494" y="1725" as="targetPoint" />
            <Array as="points">
              <mxPoint x="494" y="1765" />
            </Array>
          </mxGeometry>
        </mxCell>
        <mxCell id="PgV6RyHVGMir6iEWmVkU-52" value="Secure" style="text;html=1;align=center;verticalAlign=middle;resizable=0;points=[];autosize=1;strokeColor=none;fillColor=none;fontSize=18;" parent="1" vertex="1">
          <mxGeometry x="454" y="1590" width="70" height="30" as="geometry" />
        </mxCell>
        <mxCell id="PgV6RyHVGMir6iEWmVkU-53" value="MQTT" style="text;html=1;align=center;verticalAlign=middle;resizable=0;points=[];autosize=1;strokeColor=none;fillColor=none;fontSize=18;" parent="1" vertex="1">
          <mxGeometry x="508" y="1660" width="70" height="30" as="geometry" />
        </mxCell>
        <mxCell id="PgV6RyHVGMir6iEWmVkU-54" value="WebSocket" style="text;html=1;align=center;verticalAlign=middle;resizable=0;points=[];autosize=1;strokeColor=none;fillColor=none;fontSize=18;" parent="1" vertex="1">
          <mxGeometry x="509" y="1745" width="110" height="30" as="geometry" />
        </mxCell>
        <mxCell id="PgV6RyHVGMir6iEWmVkU-55" value="" style="endArrow=none;html=1;rounded=0;fontSize=18;strokeWidth=4;" parent="1" edge="1">
          <mxGeometry width="50" height="50" relative="1" as="geometry">
            <mxPoint x="494" y="1880" as="sourcePoint" />
            <mxPoint x="494" y="1810" as="targetPoint" />
            <Array as="points">
              <mxPoint x="494" y="1850" />
            </Array>
          </mxGeometry>
        </mxCell>
        <mxCell id="PgV6RyHVGMir6iEWmVkU-56" value="" style="endArrow=none;html=1;rounded=0;fontSize=18;strokeWidth=4;" parent="1" edge="1">
          <mxGeometry width="50" height="50" relative="1" as="geometry">
            <mxPoint x="494" y="1964" as="sourcePoint" />
            <mxPoint x="494" y="1894" as="targetPoint" />
            <Array as="points">
              <mxPoint x="494" y="1934" />
            </Array>
          </mxGeometry>
        </mxCell>
        <mxCell id="PgV6RyHVGMir6iEWmVkU-57" value="RESTful" style="text;html=1;align=center;verticalAlign=middle;resizable=0;points=[];autosize=1;strokeColor=none;fillColor=none;fontSize=18;" parent="1" vertex="1">
          <mxGeometry x="514" y="1830" width="80" height="30" as="geometry" />
        </mxCell>
        <mxCell id="PgV6RyHVGMir6iEWmVkU-58" value="WebRTC" style="text;html=1;align=center;verticalAlign=middle;resizable=0;points=[];autosize=1;strokeColor=none;fillColor=none;fontSize=18;" parent="1" vertex="1">
          <mxGeometry x="514" y="1914" width="90" height="30" as="geometry" />
        </mxCell>
        <mxCell id="PgV6RyHVGMir6iEWmVkU-59" value="" style="endArrow=none;html=1;rounded=0;fontSize=18;strokeWidth=4;" parent="1" edge="1">
          <mxGeometry width="50" height="50" relative="1" as="geometry">
            <mxPoint x="494" y="2050" as="sourcePoint" />
            <mxPoint x="494" y="1980" as="targetPoint" />
            <Array as="points">
              <mxPoint x="494" y="2020" />
            </Array>
          </mxGeometry>
        </mxCell>
        <mxCell id="PgV6RyHVGMir6iEWmVkU-60" value="etc..." style="text;html=1;align=center;verticalAlign=middle;resizable=0;points=[];autosize=1;strokeColor=none;fillColor=none;fontSize=18;" parent="1" vertex="1">
          <mxGeometry x="524" y="2000" width="50" height="30" as="geometry" />
        </mxCell>
        <mxCell id="PgV6RyHVGMir6iEWmVkU-61" value="App" style="rounded=1;whiteSpace=wrap;html=1;fontSize=18;" parent="1" vertex="1">
          <mxGeometry x="80" y="840" width="120" height="60" as="geometry" />
        </mxCell>
        <mxCell id="PgV6RyHVGMir6iEWmVkU-62" value="Enkore Admin" style="rounded=1;whiteSpace=wrap;html=1;fontSize=18;" parent="1" vertex="1">
          <mxGeometry x="358" y="840" width="120" height="60" as="geometry" />
        </mxCell>
        <mxCell id="PgV6RyHVGMir6iEWmVkU-63" value="AWS&lt;br&gt;Cognito" style="rounded=1;whiteSpace=wrap;html=1;fontSize=18;" parent="1" vertex="1">
          <mxGeometry x="634" y="840" width="120" height="60" as="geometry" />
        </mxCell>
        <mxCell id="PgV6RyHVGMir6iEWmVkU-65" value="" style="endArrow=none;html=1;rounded=0;fontSize=18;strokeWidth=4;" parent="1" edge="1">
          <mxGeometry width="50" height="50" relative="1" as="geometry">
            <mxPoint x="699" y="1390" as="sourcePoint" />
            <mxPoint x="699" y="900" as="targetPoint" />
          </mxGeometry>
        </mxCell>
        <mxCell id="PgV6RyHVGMir6iEWmVkU-66" value="" style="endArrow=none;html=1;rounded=0;fontSize=18;strokeWidth=4;" parent="1" edge="1">
          <mxGeometry width="50" height="50" relative="1" as="geometry">
            <mxPoint x="418" y="1390" as="sourcePoint" />
            <mxPoint x="417.5" y="900" as="targetPoint" />
          </mxGeometry>
        </mxCell>
        <mxCell id="PgV6RyHVGMir6iEWmVkU-67" value="" style="endArrow=none;html=1;rounded=0;fontSize=18;strokeWidth=4;" parent="1" edge="1">
          <mxGeometry width="50" height="50" relative="1" as="geometry">
            <mxPoint x="140" y="1390" as="sourcePoint" />
            <mxPoint x="139.5" y="900" as="targetPoint" />
          </mxGeometry>
        </mxCell>
        <mxCell id="PgV6RyHVGMir6iEWmVkU-68" value="" style="endArrow=classic;html=1;rounded=0;fontSize=18;strokeWidth=4;" parent="1" edge="1">
          <mxGeometry width="50" height="50" relative="1" as="geometry">
            <mxPoint x="429" y="980" as="sourcePoint" />
            <mxPoint x="689" y="980" as="targetPoint" />
          </mxGeometry>
        </mxCell>
        <mxCell id="PgV6RyHVGMir6iEWmVkU-69" value="輸入 Email 產生 QRCode&lt;br&gt;&amp;nbsp;(Authentication)" style="text;html=1;align=center;verticalAlign=middle;resizable=0;points=[];autosize=1;strokeColor=none;fillColor=none;fontSize=18;" parent="1" vertex="1">
          <mxGeometry x="453" y="930" width="220" height="50" as="geometry" />
        </mxCell>
        <mxCell id="PgV6RyHVGMir6iEWmVkU-70" value="" style="endArrow=classic;html=1;rounded=0;fontSize=18;strokeWidth=4;" parent="1" edge="1">
          <mxGeometry width="50" height="50" relative="1" as="geometry">
            <mxPoint x="693" y="1040" as="sourcePoint" />
            <mxPoint x="433" y="1040" as="targetPoint" />
          </mxGeometry>
        </mxCell>
        <mxCell id="PgV6RyHVGMir6iEWmVkU-71" value="ID, Token, refresh token" style="text;html=1;align=center;verticalAlign=middle;resizable=0;points=[];autosize=1;strokeColor=none;fillColor=none;fontSize=18;" parent="1" vertex="1">
          <mxGeometry x="458" y="1010" width="210" height="30" as="geometry" />
        </mxCell>
        <mxCell id="PgV6RyHVGMir6iEWmVkU-72" value="" style="endArrow=classic;html=1;rounded=0;fontSize=18;strokeWidth=4;" parent="1" edge="1">
          <mxGeometry width="50" height="50" relative="1" as="geometry">
            <mxPoint x="409" y="1100" as="sourcePoint" />
            <mxPoint x="149" y="1100" as="targetPoint" />
          </mxGeometry>
        </mxCell>
        <mxCell id="PgV6RyHVGMir6iEWmVkU-73" value="Server URL, mkid,&lt;br&gt;ID, Token, etc..." style="text;html=1;align=center;verticalAlign=middle;resizable=0;points=[];autosize=1;strokeColor=none;fillColor=none;fontSize=18;" parent="1" vertex="1">
          <mxGeometry x="199" y="1050" width="160" height="50" as="geometry" />
        </mxCell>
        <mxCell id="PgV6RyHVGMir6iEWmVkU-74" value="" style="endArrow=classic;html=1;rounded=0;fontSize=18;strokeWidth=4;" parent="1" edge="1">
          <mxGeometry width="50" height="50" relative="1" as="geometry">
            <mxPoint x="149" y="1170" as="sourcePoint" />
            <mxPoint x="409" y="1170" as="targetPoint" />
          </mxGeometry>
        </mxCell>
        <mxCell id="PgV6RyHVGMir6iEWmVkU-75" value="輸入 Verification code, &lt;br&gt;header 夾帶 token" style="text;html=1;align=center;verticalAlign=middle;resizable=0;points=[];autosize=1;strokeColor=none;fillColor=none;fontSize=18;" parent="1" vertex="1">
          <mxGeometry x="188" y="1120" width="190" height="50" as="geometry" />
        </mxCell>
        <mxCell id="PgV6RyHVGMir6iEWmVkU-76" value="" style="endArrow=classic;html=1;rounded=0;fontSize=18;strokeWidth=4;" parent="1" edge="1">
          <mxGeometry width="50" height="50" relative="1" as="geometry">
            <mxPoint x="433" y="1220" as="sourcePoint" />
            <mxPoint x="693" y="1220" as="targetPoint" />
          </mxGeometry>
        </mxCell>
        <mxCell id="PgV6RyHVGMir6iEWmVkU-77" value="認證 token" style="text;html=1;align=center;verticalAlign=middle;resizable=0;points=[];autosize=1;strokeColor=none;fillColor=none;fontSize=18;" parent="1" vertex="1">
          <mxGeometry x="517" y="1180" width="100" height="30" as="geometry" />
        </mxCell>
        <mxCell id="PgV6RyHVGMir6iEWmVkU-80" value="" style="endArrow=classic;html=1;rounded=0;fontSize=18;strokeWidth=4;" parent="1" edge="1">
          <mxGeometry width="50" height="50" relative="1" as="geometry">
            <mxPoint x="693" y="1290" as="sourcePoint" />
            <mxPoint x="433" y="1290" as="targetPoint" />
          </mxGeometry>
        </mxCell>
        <mxCell id="PgV6RyHVGMir6iEWmVkU-81" value="驗證 token，&lt;br&gt;成功的話處理商業邏輯" style="text;html=1;align=center;verticalAlign=middle;resizable=0;points=[];autosize=1;strokeColor=none;fillColor=none;fontSize=18;" parent="1" vertex="1">
          <mxGeometry x="463" y="1230" width="200" height="50" as="geometry" />
        </mxCell>
        <mxCell id="PgV6RyHVGMir6iEWmVkU-82" value="" style="endArrow=classic;html=1;rounded=0;fontSize=18;strokeWidth=4;" parent="1" edge="1">
          <mxGeometry width="50" height="50" relative="1" as="geometry">
            <mxPoint x="409" y="1350" as="sourcePoint" />
            <mxPoint x="149" y="1350" as="targetPoint" />
          </mxGeometry>
        </mxCell>
        <mxCell id="PgV6RyHVGMir6iEWmVkU-83" value="回傳處理結果" style="text;html=1;align=center;verticalAlign=middle;resizable=0;points=[];autosize=1;strokeColor=none;fillColor=none;fontSize=18;" parent="1" vertex="1">
          <mxGeometry x="219" y="1310" width="120" height="30" as="geometry" />
        </mxCell>
      </root>
    </mxGraphModel>
  </diagram>
</mxfile>
